<svg width="37" height="48" viewBox="0 0 37 48" fill="none" xmlns="http://www.w3.org/2000/svg">
<path d="M1.8894 0.923127C1.37346 0.971548 0.936045 1.45414 0.938076 1.9725V46.0558C0.930345 46.6104 1.43327 47.1219 1.98786 47.1219C2.54205 47.1219 3.04493 46.6104 3.03722 46.0558V20.8652H11.4339V28.7371C11.4339 29.2868 11.934 29.7869 12.4837 29.7869H35.5752C35.9711 29.7869 36.3588 29.5391 36.5261 29.1802C36.6937 28.8213 36.6323 28.3688 36.3788 28.0649L29.5888 19.8158L36.3788 11.5663C36.6323 11.2624 36.6937 10.8099 36.5261 10.4514C36.3588 10.0926 35.9711 9.84557 35.5752 9.84435H20.8805V1.97247C20.8801 1.42275 20.3804 0.923096 19.8307 0.923096H1.98817C1.95521 0.921468 1.92225 0.921468 1.8897 0.923096L1.8894 0.923127ZM3.03731 3.02229H18.7809V18.766H3.03731V3.02229ZM20.8809 11.9436H33.361L27.424 19.1433C27.1123 19.5169 27.1123 20.1146 27.424 20.4881L33.361 27.6878H13.533V20.8653H19.8306C20.3803 20.8653 20.88 20.3652 20.8804 19.8159L20.8809 11.9436Z" fill="#4059AD"/>
</svg>
