<svg width="75" height="52" viewBox="0 0 75 52" fill="none" xmlns="http://www.w3.org/2000/svg">
<path d="M14.4287 9.00781V41H13.2422V9.00781H14.4287ZM26.0742 9.00781V10.1943H1.59668V9.00781H26.0742ZM30.5786 21.3564V41H29.3921V17.2256H30.5786V21.3564ZM40.0049 17.0278L39.873 18.0825C39.6387 18.0532 39.3896 18.0239 39.126 17.9946C38.877 17.9653 38.6133 17.9507 38.335 17.9507C37.002 17.9507 35.8301 18.2217 34.8193 18.7637C33.8232 19.3057 32.9883 20.0527 32.3145 21.0049C31.6553 21.957 31.1572 23.0557 30.8203 24.3008C30.498 25.5312 30.3369 26.8496 30.3369 28.2559L29.5459 28.3218C29.5459 26.6519 29.7217 25.1138 30.0732 23.7075C30.4395 22.3013 30.9814 21.0854 31.6992 20.0601C32.4316 19.02 33.3472 18.2144 34.4458 17.6431C35.5591 17.0718 36.8555 16.7861 38.335 16.7861C38.7012 16.7861 39.0234 16.8081 39.3018 16.8521C39.5801 16.896 39.8145 16.9546 40.0049 17.0278ZM45.9375 17.2256V41H44.751V17.2256H45.9375ZM44.1357 9.79883C44.1357 9.46191 44.2529 9.17627 44.4873 8.94189C44.7217 8.69287 45.0073 8.56836 45.3442 8.56836C45.6812 8.56836 45.9668 8.69287 46.2012 8.94189C46.4502 9.17627 46.5747 9.46191 46.5747 9.79883C46.5747 10.1357 46.4502 10.4214 46.2012 10.6558C45.9668 10.8901 45.6812 11.0073 45.3442 11.0073C45.0073 11.0073 44.7217 10.8901 44.4873 10.6558C44.2529 10.4214 44.1357 10.1357 44.1357 9.79883ZM54.8804 21.7959V50.1406H53.6938V17.2256H54.8804V21.7959ZM71.9092 28.8711V29.3325C71.9092 31.1489 71.7041 32.7969 71.2939 34.2764C70.8984 35.7559 70.3198 37.0303 69.5581 38.0996C68.7964 39.1689 67.8589 39.9966 66.7456 40.5825C65.647 41.1538 64.3945 41.4395 62.9883 41.4395C61.6553 41.4395 60.4541 41.249 59.3848 40.8682C58.3154 40.4873 57.3853 39.96 56.5942 39.2861C55.8179 38.6123 55.188 37.8506 54.7046 37.001C54.2212 36.1367 53.8843 35.2358 53.6938 34.2983V24.6304C53.9575 23.5171 54.3457 22.4844 54.8584 21.5322C55.3711 20.5801 56.0083 19.7524 56.77 19.0493C57.5317 18.3315 58.4253 17.7749 59.4507 17.3794C60.4907 16.9839 61.6553 16.7861 62.9443 16.7861C64.3506 16.7861 65.6104 17.0645 66.7236 17.6211C67.8369 18.1777 68.7744 18.9834 69.5361 20.0381C70.3125 21.0781 70.8984 22.3452 71.2939 23.8394C71.7041 25.3188 71.9092 26.9961 71.9092 28.8711ZM70.7007 29.3325V28.8711C70.7007 27.2891 70.5396 25.8389 70.2173 24.5205C69.9097 23.1875 69.4336 22.0376 68.7891 21.0708C68.1592 20.0894 67.3535 19.3276 66.3721 18.7856C65.4053 18.2437 64.27 17.9727 62.9663 17.9727C61.4722 17.9727 60.2124 18.2217 59.187 18.7197C58.1763 19.2031 57.3486 19.833 56.7041 20.6094C56.0742 21.3711 55.5835 22.1841 55.2319 23.0483C54.895 23.8979 54.646 24.689 54.4849 25.4214V33.749C54.7485 34.9502 55.2319 36.0415 55.9351 37.0229C56.6382 38.0044 57.5757 38.7881 58.7476 39.374C59.9341 39.96 61.355 40.2529 63.0103 40.2529C64.314 40.2529 65.4419 39.9819 66.394 39.4399C67.3608 38.8979 68.1592 38.1436 68.7891 37.1768C69.4336 36.1953 69.9097 35.0381 70.2173 33.7051C70.5396 32.3721 70.7007 30.9146 70.7007 29.3325Z" fill="black"/>
</svg>
