<svg width="23" height="29" viewBox="0 0 23 29" fill="none" xmlns="http://www.w3.org/2000/svg">
<path fill-rule="evenodd" clip-rule="evenodd" d="M11.3252 0C8.61236 0.00101728 5.99008 0.975549 3.93508 2.74617C1.87963 4.51699 0.528031 6.96635 0.125455 9.64937C-0.277095 12.3322 0.296341 15.0707 1.74149 17.367C3.18637 19.6631 5.40737 21.3642 8.00048 22.1615C8.25911 22.5321 8.49255 22.9199 8.69952 23.3217C9.42018 24.9094 10.0572 26.534 10.6077 28.1886C10.7087 28.4994 10.9983 28.71 11.3253 28.71C11.6521 28.71 11.9417 28.4994 12.0427 28.1886C12.5935 26.5353 13.231 24.9122 13.9522 23.3258C14.159 22.924 14.3924 22.5361 14.6513 22.1656C17.2474 21.3709 19.4719 19.67 20.9199 17.373C22.3676 15.0757 22.9425 12.3349 22.5395 9.64943C22.1364 6.96407 20.7829 4.5127 18.7245 2.74168C16.6663 0.970861 14.0404 -0.00221382 11.3253 0.000390422L11.3252 0ZM14.1303 20.7408C13.9571 20.7963 13.7982 20.8886 13.6639 21.0114C13.4056 21.2619 13.1866 21.5501 13.0142 21.8662C12.3576 23.1012 11.7931 24.3829 11.3252 25.7008C10.8568 24.3827 10.2923 23.1006 9.63594 21.8652C9.46379 21.549 9.24458 21.2609 8.98622 21.0104C8.8522 20.8876 8.69301 20.7952 8.51984 20.7398C5.48099 19.8336 3.06697 17.5157 2.03813 14.516C1.00923 11.5164 1.49216 8.20434 3.33505 5.62386C5.17795 3.04299 8.15372 1.5115 11.3247 1.5115C14.4955 1.5115 17.4713 3.04299 19.3144 5.62386C21.1573 8.20447 21.6404 11.5165 20.6116 14.516C19.5827 17.5157 17.1684 19.8336 14.1296 20.7398L14.1303 20.7408Z" fill="#4059AD"/>
<path fill-rule="evenodd" clip-rule="evenodd" d="M11.3251 6.04248C9.92295 6.04248 8.57826 6.59944 7.58672 7.59103C6.59545 8.5824 6.03833 9.92723 6.03833 11.3295C6.03833 12.7316 6.59549 14.0764 7.58672 15.0681C8.57819 16.0596 9.92295 16.6166 11.3251 16.6166C12.7271 16.6166 14.0717 16.0597 15.0633 15.0681C16.0547 14.0765 16.6117 12.7316 16.6117 11.3295C16.6112 9.92749 16.054 8.58285 15.0625 7.59155C14.0712 6.60018 12.7271 6.043 11.3251 6.04248ZM11.3251 15.1059C10.3237 15.1059 9.36323 14.7081 8.65501 13.9999C7.94705 13.2918 7.5491 12.3313 7.5491 11.3297C7.5491 10.3282 7.94707 9.36764 8.65501 8.65935C9.36323 7.95133 10.3237 7.55359 11.3251 7.55359C12.3266 7.55359 13.2868 7.95135 13.995 8.65935C14.7032 9.36764 15.1009 10.3282 15.1009 11.3297C15.1004 12.331 14.7024 13.2913 13.9945 13.9994C13.2863 14.7074 12.3263 15.1054 11.3251 15.1059Z" fill="#4059AD"/>
</svg>
