<svg width="592" height="132" viewBox="0 0 592 132" fill="none" xmlns="http://www.w3.org/2000/svg">
<path d="M152.941 25.7642V16.6364H195.947V25.7642H179.915V69H168.972V25.7642H152.941ZM196.586 69V29.7273H207.146V36.5795H207.555C208.271 34.142 209.473 32.3011 211.16 31.0568C212.848 29.7955 214.791 29.1648 216.99 29.1648C217.535 29.1648 218.123 29.1989 218.754 29.267C219.385 29.3352 219.939 29.429 220.416 29.5483V39.2131C219.905 39.0597 219.197 38.9233 218.294 38.804C217.39 38.6847 216.564 38.625 215.814 38.625C214.211 38.625 212.78 38.9744 211.518 39.6733C210.274 40.3551 209.285 41.3097 208.552 42.5369C207.836 43.7642 207.478 45.179 207.478 46.7812V69H196.586ZM223.887 69V29.7273H234.779V69H223.887ZM229.359 24.6648C227.74 24.6648 226.35 24.1278 225.191 23.054C224.049 21.9631 223.478 20.6591 223.478 19.142C223.478 17.642 224.049 16.3551 225.191 15.2812C226.35 14.1903 227.74 13.6449 229.359 13.6449C230.978 13.6449 232.359 14.1903 233.501 15.2812C234.66 16.3551 235.24 17.642 235.24 19.142C235.24 20.6591 234.66 21.9631 233.501 23.054C232.359 24.1278 230.978 24.6648 229.359 24.6648ZM241.345 83.7273V29.7273H252.083V36.3239H252.569C253.046 35.267 253.737 34.1932 254.64 33.1023C255.56 31.9943 256.754 31.0739 258.22 30.3409C259.703 29.5909 261.543 29.2159 263.742 29.2159C266.606 29.2159 269.248 29.9659 271.668 31.4659C274.089 32.9489 276.024 35.1903 277.472 38.1903C278.921 41.1733 279.646 44.9148 279.646 49.4148C279.646 53.7955 278.938 57.4943 277.524 60.5114C276.126 63.5114 274.217 65.7869 271.796 67.3381C269.393 68.8722 266.7 69.6392 263.717 69.6392C261.603 69.6392 259.805 69.2898 258.322 68.5909C256.856 67.892 255.654 67.0142 254.717 65.9574C253.779 64.8835 253.063 63.8011 252.569 62.7102H252.237V83.7273H241.345ZM252.006 49.3636C252.006 51.6989 252.33 53.7358 252.978 55.4744C253.626 57.2131 254.563 58.5682 255.791 59.5398C257.018 60.4943 258.509 60.9716 260.265 60.9716C262.038 60.9716 263.538 60.4858 264.765 59.5142C265.992 58.5256 266.921 57.1619 267.552 55.4233C268.2 53.6676 268.524 51.6477 268.524 49.3636C268.524 47.0966 268.208 45.1023 267.578 43.3807C266.947 41.6591 266.018 40.3125 264.791 39.3409C263.563 38.3693 262.055 37.8835 260.265 37.8835C258.492 37.8835 256.992 38.3523 255.765 39.2898C254.555 40.2273 253.626 41.5568 252.978 43.2784C252.33 45 252.006 47.0284 252.006 49.3636Z" fill="#4059AD"/>
<path d="M328.75 16.6364V69H319.187L296.406 36.0426H296.023V69H284.952V16.6364H294.667L317.27 49.5682H317.73V16.6364H328.75ZM353.277 69.767C349.305 69.767 345.87 68.9233 342.973 67.2358C340.092 65.5312 337.868 63.1619 336.299 60.1278C334.731 57.0767 333.947 53.5398 333.947 49.517C333.947 45.4602 334.731 41.9148 336.299 38.8807C337.868 35.8295 340.092 33.4602 342.973 31.7727C345.87 30.0682 349.305 29.2159 353.277 29.2159C357.248 29.2159 360.674 30.0682 363.555 31.7727C366.453 33.4602 368.686 35.8295 370.254 38.8807C371.822 41.9148 372.606 45.4602 372.606 49.517C372.606 53.5398 371.822 57.0767 370.254 60.1278C368.686 63.1619 366.453 65.5312 363.555 67.2358C360.674 68.9233 357.248 69.767 353.277 69.767ZM353.328 61.3295C355.135 61.3295 356.643 60.8182 357.853 59.7955C359.064 58.7557 359.976 57.3409 360.589 55.5511C361.22 53.7614 361.535 51.7244 361.535 49.4403C361.535 47.1562 361.22 45.1193 360.589 43.3295C359.976 41.5398 359.064 40.125 357.853 39.0852C356.643 38.0455 355.135 37.5256 353.328 37.5256C351.504 37.5256 349.97 38.0455 348.726 39.0852C347.498 40.125 346.569 41.5398 345.939 43.3295C345.325 45.1193 345.018 47.1562 345.018 49.4403C345.018 51.7244 345.325 53.7614 345.939 55.5511C346.569 57.3409 347.498 58.7557 348.726 59.7955C349.97 60.8182 351.504 61.3295 353.328 61.3295ZM398.418 29.7273V37.9091H374.767V29.7273H398.418ZM380.137 20.3182H391.029V56.9318C391.029 57.9375 391.182 58.7216 391.489 59.2841C391.796 59.8295 392.222 60.2131 392.767 60.4347C393.33 60.6562 393.977 60.767 394.71 60.767C395.222 60.767 395.733 60.7244 396.245 60.6392C396.756 60.5369 397.148 60.4602 397.421 60.4091L399.134 68.5142C398.588 68.6847 397.821 68.8807 396.833 69.1023C395.844 69.3409 394.642 69.4858 393.227 69.5369C390.602 69.6392 388.301 69.2898 386.324 68.4886C384.364 67.6875 382.838 66.4432 381.747 64.7557C380.656 63.0682 380.12 60.9375 380.137 58.3636V20.3182ZM420.829 69.767C416.789 69.767 413.312 68.9489 410.397 67.3125C407.499 65.6591 405.266 63.3239 403.698 60.3068C402.13 57.2727 401.346 53.6847 401.346 49.5426C401.346 45.5028 402.13 41.9574 403.698 38.9062C405.266 35.8551 407.474 33.4773 410.32 31.7727C413.184 30.0682 416.542 29.2159 420.394 29.2159C422.985 29.2159 425.397 29.6335 427.63 30.4688C429.88 31.2869 431.84 32.5227 433.511 34.1761C435.198 35.8295 436.511 37.9091 437.448 40.4148C438.386 42.9034 438.854 45.8182 438.854 49.1591V52.1506H405.692V45.4006H428.602C428.602 43.8324 428.261 42.4432 427.579 41.233C426.897 40.0227 425.951 39.0767 424.741 38.3949C423.548 37.696 422.158 37.3466 420.573 37.3466C418.92 37.3466 417.454 37.7301 416.175 38.4972C414.914 39.2472 413.925 40.2614 413.21 41.5398C412.494 42.8011 412.127 44.2074 412.11 45.7585V52.1761C412.11 54.1193 412.468 55.7983 413.184 57.2131C413.917 58.6278 414.948 59.7188 416.278 60.4858C417.607 61.2528 419.184 61.6364 421.008 61.6364C422.218 61.6364 423.326 61.4659 424.332 61.125C425.337 60.7841 426.198 60.2727 426.914 59.5909C427.63 58.9091 428.175 58.0739 428.55 57.0852L438.624 57.75C438.113 60.1705 437.065 62.2841 435.479 64.0909C433.911 65.8807 431.883 67.2784 429.394 68.2841C426.923 69.2727 424.067 69.767 420.829 69.767Z" fill="#1E1E1E"/>
<path d="M1.64631 101.727H4.87358L11.3281 112.591H11.6009L18.0554 101.727H21.2827L12.8736 115.409V125H10.0554V115.409L1.64631 101.727ZM29.1861 125.364C27.6103 125.364 26.2277 124.989 25.0384 124.239C23.8565 123.489 22.9323 122.439 22.2656 121.091C21.6065 119.742 21.277 118.167 21.277 116.364C21.277 114.545 21.6065 112.958 22.2656 111.602C22.9323 110.246 23.8565 109.193 25.0384 108.443C26.2277 107.693 27.6103 107.318 29.1861 107.318C30.7618 107.318 32.1406 107.693 33.3224 108.443C34.5118 109.193 35.4361 110.246 36.0952 111.602C36.7618 112.958 37.0952 114.545 37.0952 116.364C37.0952 118.167 36.7618 119.742 36.0952 121.091C35.4361 122.439 34.5118 123.489 33.3224 124.239C32.1406 124.989 30.7618 125.364 29.1861 125.364ZM29.1861 122.955C30.383 122.955 31.3679 122.648 32.1406 122.034C32.9134 121.42 33.4853 120.614 33.8565 119.614C34.2277 118.614 34.4134 117.53 34.4134 116.364C34.4134 115.197 34.2277 114.11 33.8565 113.102C33.4853 112.095 32.9134 111.28 32.1406 110.659C31.3679 110.038 30.383 109.727 29.1861 109.727C27.9891 109.727 27.0043 110.038 26.2315 110.659C25.4588 111.28 24.8868 112.095 24.5156 113.102C24.1444 114.11 23.9588 115.197 23.9588 116.364C23.9588 117.53 24.1444 118.614 24.5156 119.614C24.8868 120.614 25.4588 121.42 26.2315 122.034C27.0043 122.648 27.9891 122.955 29.1861 122.955ZM52.1889 117.864V107.545H54.8707V125H52.1889V122.045H52.0071C51.598 122.932 50.9616 123.686 50.098 124.307C49.2344 124.92 48.1435 125.227 46.8253 125.227C45.7344 125.227 44.7647 124.989 43.9162 124.511C43.0677 124.027 42.401 123.299 41.9162 122.33C41.4313 121.352 41.1889 120.121 41.1889 118.636V107.545H43.8707V118.455C43.8707 119.727 44.2268 120.742 44.9389 121.5C45.6586 122.258 46.5753 122.636 47.6889 122.636C48.3556 122.636 49.0336 122.466 49.723 122.125C50.42 121.784 51.0033 121.261 51.473 120.557C51.9503 119.852 52.1889 118.955 52.1889 117.864ZM59.7827 125V107.545H62.3736V110.182H62.5554C62.8736 109.318 63.4493 108.617 64.2827 108.08C65.116 107.542 66.0554 107.273 67.1009 107.273C67.2978 107.273 67.544 107.277 67.8395 107.284C68.1349 107.292 68.3584 107.303 68.5099 107.318V110.045C68.419 110.023 68.2107 109.989 67.8849 109.943C67.5668 109.89 67.2296 109.864 66.8736 109.864C66.0251 109.864 65.2675 110.042 64.6009 110.398C63.9418 110.746 63.419 111.231 63.0327 111.852C62.6539 112.466 62.4645 113.167 62.4645 113.955V125H59.7827ZM88.0071 125.364C86.3253 125.364 84.8745 124.992 83.6548 124.25C82.4427 123.5 81.5071 122.455 80.848 121.114C80.1965 119.765 79.8707 118.197 79.8707 116.409C79.8707 114.621 80.1965 113.045 80.848 111.682C81.5071 110.311 82.4238 109.242 83.598 108.477C84.7798 107.705 86.1586 107.318 87.7344 107.318C88.6435 107.318 89.5412 107.47 90.4276 107.773C91.3139 108.076 92.1207 108.568 92.848 109.25C93.5753 109.924 94.1548 110.818 94.5866 111.932C95.0185 113.045 95.2344 114.417 95.2344 116.045V117.182H81.7798V114.864H92.5071C92.5071 113.879 92.3101 113 91.9162 112.227C91.5298 111.455 90.9768 110.845 90.2571 110.398C89.545 109.951 88.7041 109.727 87.7344 109.727C86.6662 109.727 85.742 109.992 84.9616 110.523C84.1889 111.045 83.5942 111.727 83.1776 112.568C82.7609 113.409 82.5526 114.311 82.5526 115.273V116.818C82.5526 118.136 82.7798 119.254 83.2344 120.17C83.6965 121.08 84.3366 121.773 85.1548 122.25C85.973 122.72 86.9238 122.955 88.0071 122.955C88.7116 122.955 89.348 122.856 89.9162 122.659C90.492 122.455 90.9882 122.152 91.4048 121.75C91.8215 121.341 92.1435 120.833 92.3707 120.227L94.9616 120.955C94.6889 121.833 94.2306 122.606 93.5866 123.273C92.9427 123.932 92.1473 124.447 91.2003 124.818C90.2533 125.182 89.1889 125.364 88.0071 125.364ZM113.055 107.545L106.601 125H103.874L97.419 107.545H100.328L105.146 121.455H105.328L110.146 107.545H113.055ZM123.288 125.364C121.607 125.364 120.156 124.992 118.936 124.25C117.724 123.5 116.788 122.455 116.129 121.114C115.478 119.765 115.152 118.197 115.152 116.409C115.152 114.621 115.478 113.045 116.129 111.682C116.788 110.311 117.705 109.242 118.879 108.477C120.061 107.705 121.44 107.318 123.016 107.318C123.925 107.318 124.822 107.47 125.709 107.773C126.595 108.076 127.402 108.568 128.129 109.25C128.857 109.924 129.436 110.818 129.868 111.932C130.3 113.045 130.516 114.417 130.516 116.045V117.182H117.061V114.864H127.788C127.788 113.879 127.591 113 127.197 112.227C126.811 111.455 126.258 110.845 125.538 110.398C124.826 109.951 123.985 109.727 123.016 109.727C121.947 109.727 121.023 109.992 120.243 110.523C119.47 111.045 118.875 111.727 118.459 112.568C118.042 113.409 117.834 114.311 117.834 115.273V116.818C117.834 118.136 118.061 119.254 118.516 120.17C118.978 121.08 119.618 121.773 120.436 122.25C121.254 122.72 122.205 122.955 123.288 122.955C123.993 122.955 124.629 122.856 125.197 122.659C125.773 122.455 126.269 122.152 126.686 121.75C127.103 121.341 127.425 120.833 127.652 120.227L130.243 120.955C129.97 121.833 129.512 122.606 128.868 123.273C128.224 123.932 127.429 124.447 126.482 124.818C125.535 125.182 124.47 125.364 123.288 125.364ZM134.595 125V107.545H137.186V110.182H137.368C137.686 109.318 138.262 108.617 139.095 108.08C139.929 107.542 140.868 107.273 141.913 107.273C142.11 107.273 142.357 107.277 142.652 107.284C142.947 107.292 143.171 107.303 143.322 107.318V110.045C143.232 110.023 143.023 109.989 142.697 109.943C142.379 109.89 142.042 109.864 141.686 109.864C140.838 109.864 140.08 110.042 139.413 110.398C138.754 110.746 138.232 111.231 137.845 111.852C137.466 112.466 137.277 113.167 137.277 113.955V125H134.595ZM148.76 131.545C148.305 131.545 147.9 131.508 147.544 131.432C147.188 131.364 146.942 131.295 146.805 131.227L147.487 128.864C148.139 129.03 148.714 129.091 149.214 129.045C149.714 129 150.158 128.777 150.544 128.375C150.938 127.981 151.298 127.341 151.624 126.455L152.124 125.091L145.669 107.545H148.578L153.396 121.455H153.578L158.396 107.545H161.305L153.896 127.545C153.563 128.447 153.15 129.193 152.658 129.784C152.165 130.383 151.593 130.826 150.942 131.114C150.298 131.402 149.571 131.545 148.76 131.545ZM170.811 125.364C169.357 125.364 168.072 124.996 166.959 124.261C165.845 123.519 164.974 122.473 164.345 121.125C163.716 119.769 163.402 118.167 163.402 116.318C163.402 114.485 163.716 112.894 164.345 111.545C164.974 110.197 165.849 109.155 166.97 108.42C168.091 107.686 169.387 107.318 170.857 107.318C171.993 107.318 172.891 107.508 173.55 107.886C174.216 108.258 174.724 108.682 175.072 109.159C175.429 109.629 175.705 110.015 175.902 110.318H176.129V101.727H178.811V125H176.22V122.318H175.902C175.705 122.636 175.425 123.038 175.061 123.523C174.697 124 174.179 124.428 173.504 124.807C172.83 125.178 171.932 125.364 170.811 125.364ZM171.175 122.955C172.25 122.955 173.16 122.674 173.902 122.114C174.644 121.545 175.209 120.761 175.595 119.761C175.982 118.754 176.175 117.591 176.175 116.273C176.175 114.97 175.985 113.83 175.607 112.852C175.228 111.867 174.667 111.102 173.925 110.557C173.182 110.004 172.266 109.727 171.175 109.727C170.038 109.727 169.091 110.019 168.334 110.602C167.584 111.178 167.019 111.962 166.641 112.955C166.269 113.939 166.084 115.045 166.084 116.273C166.084 117.515 166.273 118.644 166.652 119.659C167.038 120.667 167.607 121.47 168.357 122.068C169.114 122.659 170.054 122.955 171.175 122.955ZM189.232 125.409C188.125 125.409 187.122 125.201 186.22 124.784C185.319 124.36 184.603 123.75 184.072 122.955C183.542 122.152 183.277 121.182 183.277 120.045C183.277 119.045 183.474 118.235 183.868 117.614C184.262 116.985 184.788 116.492 185.447 116.136C186.107 115.78 186.834 115.515 187.629 115.341C188.432 115.159 189.239 115.015 190.05 114.909C191.11 114.773 191.97 114.67 192.629 114.602C193.296 114.527 193.781 114.402 194.084 114.227C194.394 114.053 194.55 113.75 194.55 113.318V113.227C194.55 112.106 194.243 111.235 193.629 110.614C193.023 109.992 192.103 109.682 190.868 109.682C189.588 109.682 188.584 109.962 187.857 110.523C187.129 111.083 186.618 111.682 186.322 112.318L183.777 111.409C184.232 110.348 184.838 109.523 185.595 108.932C186.36 108.333 187.194 107.917 188.095 107.682C189.004 107.439 189.898 107.318 190.777 107.318C191.338 107.318 191.982 107.386 192.709 107.523C193.444 107.652 194.152 107.92 194.834 108.33C195.523 108.739 196.095 109.356 196.55 110.182C197.004 111.008 197.232 112.114 197.232 113.5V125H194.55V122.636H194.413C194.232 123.015 193.929 123.42 193.504 123.852C193.08 124.284 192.516 124.652 191.811 124.955C191.107 125.258 190.247 125.409 189.232 125.409ZM189.641 123C190.701 123 191.595 122.792 192.322 122.375C193.057 121.958 193.61 121.42 193.982 120.761C194.36 120.102 194.55 119.409 194.55 118.682V116.227C194.436 116.364 194.186 116.489 193.8 116.602C193.421 116.708 192.982 116.803 192.482 116.886C191.989 116.962 191.508 117.03 191.038 117.091C190.576 117.144 190.201 117.189 189.913 117.227C189.216 117.318 188.565 117.466 187.959 117.67C187.36 117.867 186.875 118.167 186.504 118.568C186.141 118.962 185.959 119.5 185.959 120.182C185.959 121.114 186.304 121.818 186.993 122.295C187.69 122.765 188.572 123 189.641 123ZM203.229 131.545C202.774 131.545 202.369 131.508 202.013 131.432C201.657 131.364 201.411 131.295 201.274 131.227L201.956 128.864C202.607 129.03 203.183 129.091 203.683 129.045C204.183 129 204.626 128.777 205.013 128.375C205.407 127.981 205.767 127.341 206.092 126.455L206.592 125.091L200.138 107.545H203.047L207.865 121.455H208.047L212.865 107.545H215.774L208.365 127.545C208.032 128.447 207.619 129.193 207.126 129.784C206.634 130.383 206.062 130.826 205.411 131.114C204.767 131.402 204.039 131.545 203.229 131.545ZM240.678 111.455L238.268 112.136C238.117 111.735 237.893 111.345 237.598 110.966C237.31 110.58 236.916 110.261 236.416 110.011C235.916 109.761 235.276 109.636 234.496 109.636C233.428 109.636 232.537 109.883 231.825 110.375C231.121 110.86 230.768 111.477 230.768 112.227C230.768 112.894 231.011 113.42 231.496 113.807C231.981 114.193 232.738 114.515 233.768 114.773L236.359 115.409C237.92 115.788 239.083 116.367 239.848 117.148C240.613 117.92 240.996 118.917 240.996 120.136C240.996 121.136 240.708 122.03 240.132 122.818C239.564 123.606 238.768 124.227 237.746 124.682C236.723 125.136 235.534 125.364 234.178 125.364C232.397 125.364 230.924 124.977 229.757 124.205C228.59 123.432 227.852 122.303 227.541 120.818L230.087 120.182C230.329 121.121 230.787 121.826 231.462 122.295C232.143 122.765 233.034 123 234.132 123C235.382 123 236.375 122.735 237.109 122.205C237.852 121.667 238.223 121.023 238.223 120.273C238.223 119.667 238.011 119.159 237.587 118.75C237.162 118.333 236.511 118.023 235.632 117.818L232.723 117.136C231.125 116.758 229.95 116.17 229.2 115.375C228.458 114.572 228.087 113.568 228.087 112.364C228.087 111.379 228.363 110.508 228.916 109.75C229.477 108.992 230.238 108.398 231.2 107.966C232.17 107.534 233.268 107.318 234.496 107.318C236.223 107.318 237.579 107.697 238.564 108.455C239.556 109.212 240.261 110.212 240.678 111.455ZM252.124 125.364C250.548 125.364 249.165 124.989 247.976 124.239C246.794 123.489 245.87 122.439 245.203 121.091C244.544 119.742 244.214 118.167 244.214 116.364C244.214 114.545 244.544 112.958 245.203 111.602C245.87 110.246 246.794 109.193 247.976 108.443C249.165 107.693 250.548 107.318 252.124 107.318C253.699 107.318 255.078 107.693 256.26 108.443C257.449 109.193 258.374 110.246 259.033 111.602C259.699 112.958 260.033 114.545 260.033 116.364C260.033 118.167 259.699 119.742 259.033 121.091C258.374 122.439 257.449 123.489 256.26 124.239C255.078 124.989 253.699 125.364 252.124 125.364ZM252.124 122.955C253.321 122.955 254.305 122.648 255.078 122.034C255.851 121.42 256.423 120.614 256.794 119.614C257.165 118.614 257.351 117.53 257.351 116.364C257.351 115.197 257.165 114.11 256.794 113.102C256.423 112.095 255.851 111.28 255.078 110.659C254.305 110.038 253.321 109.727 252.124 109.727C250.927 109.727 249.942 110.038 249.169 110.659C248.396 111.28 247.824 112.095 247.453 113.102C247.082 114.11 246.896 115.197 246.896 116.364C246.896 117.53 247.082 118.614 247.453 119.614C247.824 120.614 248.396 121.42 249.169 122.034C249.942 122.648 250.927 122.955 252.124 122.955ZM266.808 101.727V125H264.126V101.727H266.808ZM282.72 117.864V107.545H285.402V125H282.72V122.045H282.538C282.129 122.932 281.493 123.686 280.629 124.307C279.766 124.92 278.675 125.227 277.357 125.227C276.266 125.227 275.296 124.989 274.447 124.511C273.599 124.027 272.932 123.299 272.447 122.33C271.963 121.352 271.72 120.121 271.72 118.636V107.545H274.402V118.455C274.402 119.727 274.758 120.742 275.47 121.5C276.19 122.258 277.107 122.636 278.22 122.636C278.887 122.636 279.565 122.466 280.254 122.125C280.951 121.784 281.535 121.261 282.004 120.557C282.482 119.852 282.72 118.955 282.72 117.864ZM297.905 107.545V109.818H288.859V107.545H297.905ZM291.496 103.364H294.178V120C294.178 120.758 294.287 121.326 294.507 121.705C294.734 122.076 295.022 122.326 295.371 122.455C295.727 122.576 296.102 122.636 296.496 122.636C296.791 122.636 297.034 122.621 297.223 122.591C297.412 122.553 297.564 122.523 297.678 122.5L298.223 124.909C298.041 124.977 297.787 125.045 297.462 125.114C297.136 125.189 296.723 125.227 296.223 125.227C295.465 125.227 294.723 125.064 293.996 124.739C293.276 124.413 292.678 123.917 292.2 123.25C291.731 122.583 291.496 121.742 291.496 120.727V103.364ZM301.939 125V107.545H304.621V125H301.939ZM303.303 104.636C302.78 104.636 302.329 104.458 301.95 104.102C301.579 103.746 301.393 103.318 301.393 102.818C301.393 102.318 301.579 101.89 301.95 101.534C302.329 101.178 302.78 101 303.303 101C303.825 101 304.272 101.178 304.643 101.534C305.022 101.89 305.212 102.318 305.212 102.818C305.212 103.318 305.022 103.746 304.643 104.102C304.272 104.458 303.825 104.636 303.303 104.636ZM316.624 125.364C315.048 125.364 313.665 124.989 312.476 124.239C311.294 123.489 310.37 122.439 309.703 121.091C309.044 119.742 308.714 118.167 308.714 116.364C308.714 114.545 309.044 112.958 309.703 111.602C310.37 110.246 311.294 109.193 312.476 108.443C313.665 107.693 315.048 107.318 316.624 107.318C318.199 107.318 319.578 107.693 320.76 108.443C321.949 109.193 322.874 110.246 323.533 111.602C324.199 112.958 324.533 114.545 324.533 116.364C324.533 118.167 324.199 119.742 323.533 121.091C322.874 122.439 321.949 123.489 320.76 124.239C319.578 124.989 318.199 125.364 316.624 125.364ZM316.624 122.955C317.821 122.955 318.805 122.648 319.578 122.034C320.351 121.42 320.923 120.614 321.294 119.614C321.665 118.614 321.851 117.53 321.851 116.364C321.851 115.197 321.665 114.11 321.294 113.102C320.923 112.095 320.351 111.28 319.578 110.659C318.805 110.038 317.821 109.727 316.624 109.727C315.427 109.727 314.442 110.038 313.669 110.659C312.896 111.28 312.324 112.095 311.953 113.102C311.582 114.11 311.396 115.197 311.396 116.364C311.396 117.53 311.582 118.614 311.953 119.614C312.324 120.614 312.896 121.42 313.669 122.034C314.442 122.648 315.427 122.955 316.624 122.955ZM331.308 114.5V125H328.626V107.545H331.217V110.273H331.445C331.854 109.386 332.475 108.674 333.308 108.136C334.142 107.591 335.217 107.318 336.536 107.318C337.717 107.318 338.751 107.561 339.638 108.045C340.524 108.523 341.214 109.25 341.706 110.227C342.198 111.197 342.445 112.424 342.445 113.909V125H339.763V114.091C339.763 112.72 339.407 111.652 338.695 110.886C337.982 110.114 337.005 109.727 335.763 109.727C334.907 109.727 334.142 109.913 333.467 110.284C332.801 110.655 332.274 111.197 331.888 111.909C331.501 112.621 331.308 113.485 331.308 114.5ZM364.118 107.545V109.818H354.709V107.545H364.118ZM357.527 125V105.136C357.527 104.136 357.762 103.303 358.232 102.636C358.701 101.97 359.311 101.47 360.061 101.136C360.811 100.803 361.603 100.636 362.436 100.636C363.095 100.636 363.633 100.689 364.05 100.795C364.466 100.902 364.777 101 364.982 101.091L364.209 103.409C364.072 103.364 363.883 103.307 363.641 103.239C363.406 103.17 363.095 103.136 362.709 103.136C361.822 103.136 361.182 103.36 360.788 103.807C360.402 104.254 360.209 104.909 360.209 105.773V125H357.527ZM374.249 125.364C372.673 125.364 371.29 124.989 370.101 124.239C368.919 123.489 367.995 122.439 367.328 121.091C366.669 119.742 366.339 118.167 366.339 116.364C366.339 114.545 366.669 112.958 367.328 111.602C367.995 110.246 368.919 109.193 370.101 108.443C371.29 107.693 372.673 107.318 374.249 107.318C375.824 107.318 377.203 107.693 378.385 108.443C379.574 109.193 380.499 110.246 381.158 111.602C381.824 112.958 382.158 114.545 382.158 116.364C382.158 118.167 381.824 119.742 381.158 121.091C380.499 122.439 379.574 123.489 378.385 124.239C377.203 124.989 375.824 125.364 374.249 125.364ZM374.249 122.955C375.446 122.955 376.43 122.648 377.203 122.034C377.976 121.42 378.548 120.614 378.919 119.614C379.29 118.614 379.476 117.53 379.476 116.364C379.476 115.197 379.29 114.11 378.919 113.102C378.548 112.095 377.976 111.28 377.203 110.659C376.43 110.038 375.446 109.727 374.249 109.727C373.052 109.727 372.067 110.038 371.294 110.659C370.521 111.28 369.949 112.095 369.578 113.102C369.207 114.11 369.021 115.197 369.021 116.364C369.021 117.53 369.207 118.614 369.578 119.614C369.949 120.614 370.521 121.42 371.294 122.034C372.067 122.648 373.052 122.955 374.249 122.955ZM386.251 125V107.545H388.842V110.182H389.024C389.342 109.318 389.918 108.617 390.751 108.08C391.585 107.542 392.524 107.273 393.57 107.273C393.767 107.273 394.013 107.277 394.308 107.284C394.604 107.292 394.827 107.303 394.979 107.318V110.045C394.888 110.023 394.679 109.989 394.354 109.943C394.036 109.89 393.698 109.864 393.342 109.864C392.494 109.864 391.736 110.042 391.07 110.398C390.411 110.746 389.888 111.231 389.501 111.852C389.123 112.466 388.933 113.167 388.933 113.955V125H386.251ZM414.749 107.545V109.818H405.703V107.545H414.749ZM408.339 103.364H411.021V120C411.021 120.758 411.131 121.326 411.351 121.705C411.578 122.076 411.866 122.326 412.214 122.455C412.571 122.576 412.946 122.636 413.339 122.636C413.635 122.636 413.877 122.621 414.067 122.591C414.256 122.553 414.408 122.523 414.521 122.5L415.067 124.909C414.885 124.977 414.631 125.045 414.305 125.114C413.98 125.189 413.567 125.227 413.067 125.227C412.309 125.227 411.567 125.064 410.839 124.739C410.12 124.413 409.521 123.917 409.044 123.25C408.574 122.583 408.339 121.742 408.339 120.727V103.364ZM423.919 125.409C422.813 125.409 421.809 125.201 420.908 124.784C420.006 124.36 419.29 123.75 418.76 122.955C418.23 122.152 417.964 121.182 417.964 120.045C417.964 119.045 418.161 118.235 418.555 117.614C418.949 116.985 419.476 116.492 420.135 116.136C420.794 115.78 421.521 115.515 422.317 115.341C423.12 115.159 423.927 115.015 424.737 114.909C425.798 114.773 426.658 114.67 427.317 114.602C427.983 114.527 428.468 114.402 428.771 114.227C429.082 114.053 429.237 113.75 429.237 113.318V113.227C429.237 112.106 428.93 111.235 428.317 110.614C427.711 109.992 426.79 109.682 425.555 109.682C424.275 109.682 423.271 109.962 422.544 110.523C421.817 111.083 421.305 111.682 421.01 112.318L418.464 111.409C418.919 110.348 419.525 109.523 420.283 108.932C421.048 108.333 421.881 107.917 422.783 107.682C423.692 107.439 424.586 107.318 425.464 107.318C426.025 107.318 426.669 107.386 427.396 107.523C428.131 107.652 428.839 107.92 429.521 108.33C430.211 108.739 430.783 109.356 431.237 110.182C431.692 111.008 431.919 112.114 431.919 113.5V125H429.237V122.636H429.101C428.919 123.015 428.616 123.42 428.192 123.852C427.768 124.284 427.203 124.652 426.499 124.955C425.794 125.258 424.934 125.409 423.919 125.409ZM424.328 123C425.389 123 426.283 122.792 427.01 122.375C427.745 121.958 428.298 121.42 428.669 120.761C429.048 120.102 429.237 119.409 429.237 118.682V116.227C429.124 116.364 428.874 116.489 428.487 116.602C428.108 116.708 427.669 116.803 427.169 116.886C426.677 116.962 426.196 117.03 425.726 117.091C425.264 117.144 424.889 117.189 424.601 117.227C423.904 117.318 423.252 117.466 422.646 117.67C422.048 117.867 421.563 118.167 421.192 118.568C420.828 118.962 420.646 119.5 420.646 120.182C420.646 121.114 420.991 121.818 421.68 122.295C422.377 122.765 423.26 123 424.328 123ZM439.314 118.636L439.268 115.318H439.814L447.45 107.545H450.768L442.632 115.773H442.405L439.314 118.636ZM436.814 125V101.727H439.496V125H436.814ZM447.905 125L441.087 116.364L442.996 114.5L451.314 125H447.905ZM454.22 125V107.545H456.902V125H454.22ZM455.584 104.636C455.061 104.636 454.61 104.458 454.232 104.102C453.86 103.746 453.675 103.318 453.675 102.818C453.675 102.318 453.86 101.89 454.232 101.534C454.61 101.178 455.061 101 455.584 101C456.107 101 456.554 101.178 456.925 101.534C457.304 101.89 457.493 102.318 457.493 102.818C457.493 103.318 457.304 103.746 456.925 104.102C456.554 104.458 456.107 104.636 455.584 104.636ZM464.496 114.5V125H461.814V107.545H464.405V110.273H464.632C465.041 109.386 465.662 108.674 466.496 108.136C467.329 107.591 468.405 107.318 469.723 107.318C470.905 107.318 471.939 107.561 472.825 108.045C473.712 108.523 474.401 109.25 474.893 110.227C475.386 111.197 475.632 112.424 475.632 113.909V125H472.95V114.091C472.95 112.72 472.594 111.652 471.882 110.886C471.17 110.114 470.193 109.727 468.95 109.727C468.094 109.727 467.329 109.913 466.655 110.284C465.988 110.655 465.462 111.197 465.075 111.909C464.689 112.621 464.496 113.485 464.496 114.5ZM487.578 131.909C486.283 131.909 485.169 131.742 484.237 131.409C483.305 131.083 482.529 130.652 481.908 130.114C481.294 129.583 480.805 129.015 480.442 128.409L482.578 126.909C482.821 127.227 483.127 127.591 483.499 128C483.87 128.417 484.377 128.777 485.021 129.08C485.673 129.39 486.525 129.545 487.578 129.545C488.987 129.545 490.15 129.205 491.067 128.523C491.983 127.841 492.442 126.773 492.442 125.318V121.773H492.214C492.018 122.091 491.737 122.485 491.374 122.955C491.018 123.417 490.502 123.83 489.828 124.193C489.161 124.549 488.26 124.727 487.124 124.727C485.714 124.727 484.449 124.394 483.328 123.727C482.214 123.061 481.332 122.091 480.68 120.818C480.036 119.545 479.714 118 479.714 116.182C479.714 114.394 480.029 112.837 480.658 111.511C481.286 110.178 482.161 109.148 483.283 108.42C484.404 107.686 485.699 107.318 487.169 107.318C488.305 107.318 489.207 107.508 489.874 107.886C490.548 108.258 491.063 108.682 491.419 109.159C491.783 109.629 492.063 110.015 492.26 110.318H492.533V107.545H495.124V125.5C495.124 127 494.783 128.22 494.101 129.159C493.427 130.106 492.518 130.799 491.374 131.239C490.237 131.686 488.972 131.909 487.578 131.909ZM487.487 122.318C488.563 122.318 489.472 122.072 490.214 121.58C490.957 121.087 491.521 120.379 491.908 119.455C492.294 118.53 492.487 117.424 492.487 116.136C492.487 114.879 492.298 113.769 491.919 112.807C491.54 111.845 490.98 111.091 490.237 110.545C489.495 110 488.578 109.727 487.487 109.727C486.351 109.727 485.404 110.015 484.646 110.591C483.896 111.167 483.332 111.939 482.953 112.909C482.582 113.879 482.396 114.955 482.396 116.136C482.396 117.348 482.586 118.42 482.964 119.352C483.351 120.277 483.919 121.004 484.669 121.534C485.427 122.057 486.366 122.318 487.487 122.318ZM511.714 114.5V125H509.033V107.545H511.624V110.273H511.851C512.26 109.386 512.881 108.674 513.714 108.136C514.548 107.591 515.624 107.318 516.942 107.318C518.124 107.318 519.158 107.561 520.044 108.045C520.93 108.523 521.62 109.25 522.112 110.227C522.605 111.197 522.851 112.424 522.851 113.909V125H520.169V114.091C520.169 112.72 519.813 111.652 519.101 110.886C518.389 110.114 517.411 109.727 516.169 109.727C515.313 109.727 514.548 109.913 513.874 110.284C513.207 110.655 512.68 111.197 512.294 111.909C511.908 112.621 511.714 113.485 511.714 114.5ZM534.842 125.364C533.267 125.364 531.884 124.989 530.695 124.239C529.513 123.489 528.589 122.439 527.922 121.091C527.263 119.742 526.933 118.167 526.933 116.364C526.933 114.545 527.263 112.958 527.922 111.602C528.589 110.246 529.513 109.193 530.695 108.443C531.884 107.693 533.267 107.318 534.842 107.318C536.418 107.318 537.797 107.693 538.979 108.443C540.168 109.193 541.092 110.246 541.751 111.602C542.418 112.958 542.751 114.545 542.751 116.364C542.751 118.167 542.418 119.742 541.751 121.091C541.092 122.439 540.168 123.489 538.979 124.239C537.797 124.989 536.418 125.364 534.842 125.364ZM534.842 122.955C536.039 122.955 537.024 122.648 537.797 122.034C538.57 121.42 539.142 120.614 539.513 119.614C539.884 118.614 540.07 117.53 540.07 116.364C540.07 115.197 539.884 114.11 539.513 113.102C539.142 112.095 538.57 111.28 537.797 110.659C537.024 110.038 536.039 109.727 534.842 109.727C533.645 109.727 532.661 110.038 531.888 110.659C531.115 111.28 530.543 112.095 530.172 113.102C529.801 114.11 529.615 115.197 529.615 116.364C529.615 117.53 529.801 118.614 530.172 119.614C530.543 120.614 531.115 121.42 531.888 122.034C532.661 122.648 533.645 122.955 534.842 122.955ZM554.436 107.545V109.818H545.391V107.545H554.436ZM548.027 103.364H550.709V120C550.709 120.758 550.819 121.326 551.038 121.705C551.266 122.076 551.554 122.326 551.902 122.455C552.258 122.576 552.633 122.636 553.027 122.636C553.322 122.636 553.565 122.621 553.754 122.591C553.944 122.553 554.095 122.523 554.209 122.5L554.754 124.909C554.572 124.977 554.319 125.045 553.993 125.114C553.667 125.189 553.254 125.227 552.754 125.227C551.997 125.227 551.254 125.064 550.527 124.739C549.807 124.413 549.209 123.917 548.732 123.25C548.262 122.583 548.027 121.742 548.027 120.727V103.364ZM565.601 125.364C563.919 125.364 562.468 124.992 561.249 124.25C560.036 123.5 559.101 122.455 558.442 121.114C557.79 119.765 557.464 118.197 557.464 116.409C557.464 114.621 557.79 113.045 558.442 111.682C559.101 110.311 560.018 109.242 561.192 108.477C562.374 107.705 563.752 107.318 565.328 107.318C566.237 107.318 567.135 107.47 568.021 107.773C568.908 108.076 569.714 108.568 570.442 109.25C571.169 109.924 571.749 110.818 572.18 111.932C572.612 113.045 572.828 114.417 572.828 116.045V117.182H559.374V114.864H570.101C570.101 113.879 569.904 113 569.51 112.227C569.124 111.455 568.571 110.845 567.851 110.398C567.139 109.951 566.298 109.727 565.328 109.727C564.26 109.727 563.336 109.992 562.555 110.523C561.783 111.045 561.188 111.727 560.771 112.568C560.355 113.409 560.146 114.311 560.146 115.273V116.818C560.146 118.136 560.374 119.254 560.828 120.17C561.29 121.08 561.93 121.773 562.749 122.25C563.567 122.72 564.518 122.955 565.601 122.955C566.305 122.955 566.942 122.856 567.51 122.659C568.086 122.455 568.582 122.152 568.999 121.75C569.415 121.341 569.737 120.833 569.964 120.227L572.555 120.955C572.283 121.833 571.824 122.606 571.18 123.273C570.536 123.932 569.741 124.447 568.794 124.818C567.847 125.182 566.783 125.364 565.601 125.364ZM589.271 111.455L586.862 112.136C586.711 111.735 586.487 111.345 586.192 110.966C585.904 110.58 585.51 110.261 585.01 110.011C584.51 109.761 583.87 109.636 583.089 109.636C582.021 109.636 581.131 109.883 580.419 110.375C579.714 110.86 579.362 111.477 579.362 112.227C579.362 112.894 579.605 113.42 580.089 113.807C580.574 114.193 581.332 114.515 582.362 114.773L584.953 115.409C586.514 115.788 587.677 116.367 588.442 117.148C589.207 117.92 589.589 118.917 589.589 120.136C589.589 121.136 589.302 122.03 588.726 122.818C588.158 123.606 587.362 124.227 586.339 124.682C585.317 125.136 584.127 125.364 582.771 125.364C580.991 125.364 579.518 124.977 578.351 124.205C577.184 123.432 576.446 122.303 576.135 120.818L578.68 120.182C578.923 121.121 579.381 121.826 580.055 122.295C580.737 122.765 581.627 123 582.726 123C583.976 123 584.968 122.735 585.703 122.205C586.446 121.667 586.817 121.023 586.817 120.273C586.817 119.667 586.605 119.159 586.18 118.75C585.756 118.333 585.105 118.023 584.226 117.818L581.317 117.136C579.718 116.758 578.544 116.17 577.794 115.375C577.052 114.572 576.68 113.568 576.68 112.364C576.68 111.379 576.957 110.508 577.51 109.75C578.071 108.992 578.832 108.398 579.794 107.966C580.764 107.534 581.862 107.318 583.089 107.318C584.817 107.318 586.173 107.697 587.158 108.455C588.15 109.212 588.855 110.212 589.271 111.455Z" fill="#757575"/>
</svg>
